REM DIRINDEX 1\2,1\3,1\4,1\6,1\5\7,1\5\8
REM DIRNAME folder01,folder02,folder03,folder04,folder05,folder06,folder07,folder08
TITLE ""
FILE "DB4500_5th_3B_20.mp3" MP3
  TRACK 01 AUDIO
    TITLE "2:cjc114_2322"
    INDEX 01 00:00:00
  TRACK 02 AUDIO
    TITLE "0:"
    INDEX 01 00:01:13
  TRACK 03 AUDIO
    TITLE "3:cjc114_2323"
    INDEX 01 00:01:42
  TRACK 04 AUDIO
    TITLE "0:"
    INDEX 01 00:02:69
  TRACK 05 AUDIO
    TITLE "4:cjc114_2324"
    INDEX 01 00:03:21
  TRACK 06 AUDIO
    TITLE "0:"
    INDEX 01 00:05:03
  TRACK 07 AUDIO
    TITLE "2:cjc114_2325"
    INDEX 01 00:05:56
  TRACK 08 AUDIO
    TITLE "0:"
    INDEX 01 00:07:00
  TRACK 09 AUDIO
    TITLE "3:cjc114_2326"
    INDEX 01 00:07:29
  TRACK 10 AUDIO
    TITLE "0:"
    INDEX 01 00:08:62
  TRACK 11 AUDIO
    TITLE "4:cjc114_2327"
    INDEX 01 00:09:14
  TRACK 12 AUDIO
    TITLE "0:"
    INDEX 01 00:12:03
  TRACK 13 AUDIO
    TITLE "2:cjc114_2328"
    INDEX 01 00:12:54
  TRACK 14 AUDIO
    TITLE "0:"
    INDEX 01 00:13:57
  TRACK 15 AUDIO
    TITLE "3:cjc114_2329"
    INDEX 01 00:14:11
  TRACK 16 AUDIO
    TITLE "0:"
    INDEX 01 00:15:27
  TRACK 17 AUDIO
    TITLE "4:cjc114_2330"
    INDEX 01 00:15:52
  TRACK 18 AUDIO
    TITLE "0:"
    INDEX 01 00:19:15
  TRACK 19 AUDIO
    TITLE "2:cjc114_2331"
    INDEX 01 00:19:69
  TRACK 20 AUDIO
    TITLE "0:"
    INDEX 01 00:21:02
  TRACK 21 AUDIO
    TITLE "3:cjc114_2332"
    INDEX 01 00:21:31
  TRACK 22 AUDIO
    TITLE "0:"
    INDEX 01 00:22:46
  TRACK 23 AUDIO
    TITLE "4:cjc114_2333"
    INDEX 01 00:22:74
  TRACK 24 AUDIO
    TITLE "0:"
    INDEX 01 00:25:29
  TRACK 25 AUDIO
    TITLE "2:cjc114_2334"
    INDEX 01 00:26:07
  TRACK 26 AUDIO
    TITLE "0:"
    INDEX 01 00:27:38
  TRACK 27 AUDIO
    TITLE "3:cjc114_2335"
    INDEX 01 00:27:67
  TRACK 28 AUDIO
    TITLE "0:"
    INDEX 01 00:29:40
  TRACK 29 AUDIO
    TITLE "4:cjc114_2336"
    INDEX 01 00:29:70
  TRACK 30 AUDIO
    TITLE "0:"
    INDEX 01 00:32:56
  TRACK 31 AUDIO
    TITLE "2:cjc114_2337"
    INDEX 01 00:33:30
  TRACK 32 AUDIO
    TITLE "0:"
    INDEX 01 00:34:43
  TRACK 33 AUDIO
    TITLE "3:cjc114_2338"
    INDEX 01 00:34:65
  TRACK 34 AUDIO
    TITLE "0:"
    INDEX 01 00:36:13
  TRACK 35 AUDIO
    TITLE "4:cjc114_2339"
    INDEX 01 00:36:35
  TRACK 36 AUDIO
    TITLE "0:"
    INDEX 01 00:39:64
  TRACK 37 AUDIO
    TITLE "2:cjc114_2340"
    INDEX 01 00:40:38
  TRACK 38 AUDIO
    TITLE "0:"
    INDEX 01 00:41:49
  TRACK 39 AUDIO
    TITLE "3:cjc114_2341"
    INDEX 01 00:42:00
  TRACK 40 AUDIO
    TITLE "0:"
    INDEX 01 00:43:21
  TRACK 41 AUDIO
    TITLE "4:cjc114_2342"
    INDEX 01 00:43:44
  TRACK 42 AUDIO
    TITLE "0:"
    INDEX 01 00:47:07
  TRACK 43 AUDIO
    TITLE "2:cjc114_2343"
    INDEX 01 00:47:50
  TRACK 44 AUDIO
    TITLE "0:"
    INDEX 01 00:48:63
  TRACK 45 AUDIO
    TITLE "3:cjc114_2344"
    INDEX 01 00:49:12
  TRACK 46 AUDIO
    TITLE "0:"
    INDEX 01 00:50:07
  TRACK 47 AUDIO
    TITLE "4:cjc114_2345"
    INDEX 01 00:50:33
  TRACK 48 AUDIO
    TITLE "0:"
    INDEX 01 00:53:25
  TRACK 49 AUDIO
    TITLE "2:cjc114_2346"
    INDEX 01 00:53:72
  TRACK 50 AUDIO
    TITLE "0:"
    INDEX 01 00:55:32
  TRACK 51 AUDIO
    TITLE "3:cjc114_2347"
    INDEX 01 00:55:57
  TRACK 52 AUDIO
    TITLE "0:"
    INDEX 01 00:57:05
  TRACK 53 AUDIO
    TITLE "4:cjc114_2348"
    INDEX 01 00:57:33
  TRACK 54 AUDIO
    TITLE "0:"
    INDEX 01 01:00:51
  TRACK 55 AUDIO
    TITLE "2:cjc114_2349"
    INDEX 01 01:01:25
  TRACK 56 AUDIO
    TITLE "0:"
    INDEX 01 01:02:44
  TRACK 57 AUDIO
    TITLE "3:cjc114_2350"
    INDEX 01 01:02:69
  TRACK 58 AUDIO
    TITLE "0:"
    INDEX 01 01:04:35
  TRACK 59 AUDIO
    TITLE "4:cjc114_2351"
    INDEX 01 01:04:58
  TRACK 60 AUDIO
    TITLE "0:"
    INDEX 01 01:08:19
  TRACK 61 AUDIO
    TITLE "2:cjc114_2352"
    INDEX 01 01:08:70
  TRACK 62 AUDIO
    TITLE "0:"
    INDEX 01 01:09:71
  TRACK 63 AUDIO
    TITLE "3:cjc114_2353"
    INDEX 01 01:10:20
  TRACK 64 AUDIO
    TITLE "0:"
    INDEX 01 01:11:37
  TRACK 65 AUDIO
    TITLE "4:cjc114_2354"
    INDEX 01 01:11:60
  TRACK 66 AUDIO
    TITLE "0:"
    INDEX 01 01:14:23
